<?xml version="1.0" standalone="no"?><!DOCTYPE svg PUBLIC "-//W3C//DTD SVG 1.1//EN" "http://www.w3.org/Graphics/SVG/1.1/DTD/svg11.dtd"><svg t="1553692006106" class="icon" style="" viewBox="0 0 1024 1024" version="1.1" xmlns="http://www.w3.org/2000/svg" p-id="1145" xmlns:xlink="http://www.w3.org/1999/xlink" width="200" height="200"><defs><style type="text/css"></style></defs><path d="M860.854804 607.683223c0-24.680099-8.299013-43.487444-24.601304-54.404074 9.908674-5.698792 24.440645-33.911344 24.440645-58.789964-0.982374-41.122583-39.956014-71.616084-98.80533-71.616084l-155.952888 0.028653c26.676569-74.236771 21.645996-174.35091-11.838629-227.78489-20.146852-32.145118-44.418652-39.35738-61.187571-39.35738-56.613392 0-58.46046 55.685253-58.46046 74.636884 0 63.323211-8.976442 92.246961-20.138666 118.865201-8.833179 17.213034-63.049988 73.92364-118.394481 73.92364l-103.716176 0c-40.058344 0-69.105914 34.226522-69.054749 82.95841l26.930349 289.940508c3.235694 44.656059 24.711821 71.671343 67.810409 71.671343 0 0 21.460778 0.198521 37.525662 0.198521 8.206916 0 15.85306-0.055259 20.37505-0.198521 13.280468-0.427742 24.246217-9.118682 33.892925-16.414855 6.825452-5.157463 12.287861-9.603729 17.191544-9.603729 2.201132 0 14.786775 7.353478 30.216185 14.048971 15.743566 6.838755 40.742936 12.453636 64.617693 12.453636l217.004359 0c72.713069 0 107.603717-27.844162 107.646696-74.237795 0-13.707187-3.116991-21.828145-10.587126-32.459273 29.209252-7.15291 55.098899-25.90602 55.098899-58.250682 0-11.967566-5.52176-31.263028-13.093203-36.363186C832.035432 663.196561 860.88141 637.20663 860.854804 607.683223L860.854804 607.683223zM314.710147 838.573847c-12.990872 0.427742-59.611679 0-59.916625 0-16.683984 0-31.530111-16.1007-35.289738-37.730323l-26.930349-301.368792c0-22.511713 17.767666-47.249117 41.48074-47.249117l0 0.14224 101.861946 0.315178c1.753947 0 3.464915-0.200568 5.217838-0.285502l0 368.651175c-4.717442 3.391237-9.138124 6.639211-12.279674 9.005095C324.543096 833.301773 317.33595 838.260715 314.710147 838.573847L314.710147 838.573847zM790.419616 647.181819l-3.920286 0 0.356111 26.901697c3.133364 1.224898 14.836917 4.815679 14.861476 28.182876-0.024559 25.050536-32.249495 35.111682-59.391668 35.111682l0.084934 0-0.465604 25.648147c11.009751 2.536776 15.031345 12.367679 15.015995 28.126594 0 27.557636-21.968337 47.420009-78.955236 47.420009l-224.651526 0c-10.722202 0-32.580023-6.41306-45.147246-12.597923-11.873422-5.840008-30.80868-16.754592-37.423331-20.459984l0-357.99344c56.486502-15.987113 103.108333-65.745377 114.845655-88.714508 12.812817-30.407544 19.241226-62.152549 19.241226-131.859144 0-34.654264 12.465916-39.269375 25.719778-39.269375 11.729136 0 30.335912 13.19451 39.768749 28.241204 27.870768 44.457538 34.426067 140.240021-0.271176 211.968669l-5.987365 24.822338 199.143573-0.057305c33.900088 1.908466 67.986417 16.07307 67.986417 41.606607l-0.229221 8.007371c0.051165 0.313132-0.88823 22.143323-12.212136 31.747051-9.510608 8.063653-17.242709 8.349155-17.242709 8.349155l-0.211824 26.476001c0 0 11.491729 1.595334 17.480116 5.783727 9.04398 6.355755 13.125949 18.324344 12.669554 31.404244C830.884213 622.587678 805.833677 647.181819 790.419616 647.181819L790.419616 647.181819zM790.419616 647.181819" p-id="1146"></path></svg>