<?xml version="1.0" standalone="no"?><!DOCTYPE svg PUBLIC "-//W3C//DTD SVG 1.1//EN" "http://www.w3.org/Graphics/SVG/1.1/DTD/svg11.dtd"><svg t="1553945606156" class="icon" style="" viewBox="0 0 1024 1024" version="1.1" xmlns="http://www.w3.org/2000/svg" p-id="858" xmlns:xlink="http://www.w3.org/1999/xlink" width="200" height="200"><defs><style type="text/css"></style></defs><path d="M620.958574 383.566886c1.533936 0.741897 3.076058 1.394766 4.650927 1.955538 0.020466 0.007163 0.020466 0.007163 0.020466 0.007163 28.879748 10.285251 63.605643-10.212596 82.518389-48.753377 19.896142-40.460504 12.735046-83.322707-16.273638-97.583502-29.638017-14.173814-67.228147 6.144954-87.188758 46.756907-8.619308 17.568121-12.539594 36.500309-11.007705 53.328579C595.516112 359.812879 605.481068 375.968837 620.958574 383.566886zM644.593877 305.556161c10.199293-20.74037 24.723078-27.288506 27.635407-26.468838 2.527566 1.832741 6.240121 17.295921-3.977591 38.087457-10.188037 20.709671-24.609491 27.293623-27.682479 26.473955C638.065184 341.686033 634.44882 326.211597 644.593877 305.556161z" p-id="859"></path><path d="M709.882859 447.871447c2.772136 1.794879 5.774517 3.266393 8.883321 4.373611 0.020466 0.007163 0.020466 0.007163 0.020466 0.007163 23.970948 8.537444 52.750411-4.190439 69.983911-30.965246 19.72218-30.658254 16.013719-67.034742-8.488325-82.813101-24.031323-15.484669-59.372226-3.685949-78.882582 26.574239C681.651888 395.71046 685.379793 432.092066 709.882859 447.871447zM738.780003 389.125485c6.747681-10.467399 15.521508-13.682627 17.195637-13.46671 1.420349 1.77339 2.160199 11.083429-4.591575 21.562085-6.438643 9.991562-14.738679 13.362332-17.392112 13.178137C732.7251 408.067906 732.337267 399.126256 738.780003 389.125485z" p-id="860"></path><path d="M849.594855 465.871403c-13.326517-23.736611-50.072419-29.795607-79.622432-13.157671-30.777981 17.305131-44.0124 50.194192-30.146601 74.874291 5.189186 9.245572 13.566994 16.136515 24.177656 19.926842 16.669658 5.937223 37.412075 3.413749 55.481615-6.745634 13.400195-7.534604 24.124444-18.557658 30.157857-31.032784C856.902284 494.79413 856.884888 478.793714 849.594855 465.871403zM797.702997 502.012532c-7.661494 4.295839-15.015995 4.891404-18.681478 3.63069 0.375553-2.717901 3.824095-9.171893 12.737092-14.183024 7.717775-4.327562 15.116279-4.9088 18.86158-4.425799C810.823829 489.180272 807.415196 496.55217 797.702997 502.012532z" p-id="861"></path><path d="M626.872261 407.602302l-150.978597-92.975555-3.108804-1.591241c-39.237653-16.60212-82.194-13.796214-117.144 6.55223-30.54876 17.791202-51.474348 47.295166-57.403385 80.963986-6.356778 36.132942 5.65172 76.376505 17.272385 115.292839 12.71151 42.577724 25.846668 86.620823 11.729136 117.294426-14.262842 30.989805-35.348066 44.245713-59.761082 59.565631-26.155706 16.430204-55.810097 35.046191-77.259618 76.567863-16.449647 31.823799-18.729573 68.348668-6.252401 100.196003 9.957793 25.39539 34.367739 60.202127 94.121658 81.806167l0.695848 0.24764c0.010233 0.004093 0 0 0.010233 0.004093 72.417333 25.791409 146.981563-32.166607 175.894056-72.828702 0.449231-0.474814 0.706081-1.109264 1.11438-1.627057 0.960885-1.39579 2.01489-2.827395 2.861164-4.173043l-0.260943-0.152473c0.337691-0.708128 0.919952-1.221828 1.189082-1.977028 4.218068-11.841699-1.963725-24.861224-13.807471-29.079292-9.821693-3.497661-20.154016 0.414439-25.900903 8.519024l-0.280386-0.164752c-39.869033 44.026726-79.69918 76.047-126.382409 59.420321-34.926464-12.623505-58.379619-32.06223-67.855434-56.225559-7.80271-19.925818-6.227842-43.081191 4.341888-63.539128 15.888875-30.733978 36.984333-43.985794 61.415768-59.323107 26.573215-16.695241 56.707536-35.625382 76.515674-78.653361 21.129226-45.899376 5.547343-98.119715-9.521864-148.60248-10.602476-35.523051-20.62883-69.079308-16.092513-94.855368 3.654226-20.74344 16.769942-39.062668 35.986609-50.241264 21.511943-12.517081 48.028876-14.654768 72.757071-5.848195 1.124614 0.401136 2.252297 0.825808 3.373841 1.270946l148.697647 91.551112c54.338582 36.453237 66.301032 81.554434 37.682227 141.851729-34.492582 71.88726-78.214363 114.12627-117.170606 150.628626l0.10847 0.110517c-2.364861 2.332115-4.367471 5.069459-5.556553 8.408507-4.218068 11.843746 1.962701 24.863271 13.805424 29.080316 8.373715 2.981914 17.194614 0.569982 23.216771-5.169743l0.138146 0.14224c38.988989-36.756135 89.212858-88.24174 125.585253-164.046217C718.897164 525.4575 700.546214 457.004455 626.872261 407.602302z" p-id="862"></path><path d="M370.909611 297.807686c5.810333 2.069125 11.861142 3.324722 17.965164 3.724835 48.374754 3.145643 89.645716-46.145993 93.955882-112.220874 3.675716-56.459896-21.259186-105.683994-60.641125-119.710452-5.819542-2.072195-11.861142-3.324722-17.963117-3.723811-24.394596-1.590218-48.533366 10.694573-66.222237 33.69952-15.935947 20.7373-25.791409 48.606021-27.733645 78.486562-3.673669 56.484456 21.25714 105.718787 60.629869 119.742175C370.909611 297.807686 370.909611 297.807686 370.909611 297.807686zM354.643136 180.959422c1.358951-20.869307 8.142447-40.660048 18.614963-54.273091 4.987594-6.497994 15.277962-17.272385 28.072359-16.437367 2.036379 0.137123 3.978614 0.541329 5.941316 1.240247 17.323551 6.169513 33.732266 35.878139 31.187303 74.925457-2.826372 43.302225-26.878161 72.03871-46.687322 70.745251-2.036379-0.137123-3.978614-0.541329-5.942339-1.24127C368.504842 249.749134 352.105337 220.020042 354.643136 180.959422z" p-id="863"></path><path d="M520.159844 323.5817c32.121582 11.440563 69.803809-14.734586 85.778642-59.588143 15.96767-44.834114 3.307326-88.914052-28.815279-100.354616s-69.796646 14.713097-85.764316 59.547211C475.384058 268.039709 488.037239 312.141136 520.159844 323.5817zM562.205449 205.525933c3.958148 1.409093 10.739599 18.575054 1.845021 43.548842-8.904811 25.004487-25.01472 34.029024-28.971845 32.619932-3.958148-1.410116-10.735505-18.585287-1.829671-43.589774C542.141484 213.131145 558.2473 204.116841 562.205449 205.525933z" p-id="864"></path></svg>