<?xml version="1.0" standalone="no"?><!DOCTYPE svg PUBLIC "-//W3C//DTD SVG 1.1//EN" "http://www.w3.org/Graphics/SVG/1.1/DTD/svg11.dtd"><svg t="1553692036857" class="icon" style="" viewBox="0 0 1024 1024" version="1.1" xmlns="http://www.w3.org/2000/svg" p-id="2658" xmlns:xlink="http://www.w3.org/1999/xlink" width="200" height="200"><defs><style type="text/css"></style></defs><path d="M938.3 63.9H658c-12.1 0-21.9 9.8-21.9 21.9 0 12.1 9.8 21.9 21.9 21.9h198.7c-60.5 39.8-121.2 91.9-181.5 155.8-74.8 79.4-132.8 159.8-171 218.5-6.7 10.2-3.7 23.9 6.7 30.4 10.1 6.4 23.4 3.5 30-6.5 54.5-83.2 196.3-280.4 374.5-383.1 0.7 2.1 1 4.3 1 6.6v149.9c0 12.1 9.8 21.9 21.9 21.9 12.1 0 21.9-9.8 21.9-21.9V85.8c0-12.1-9.8-21.9-21.9-21.9z" p-id="2659"></path><path d="M860.2 960.6H164.4c-27.6 0-53.2-12.6-72.3-35.5-18.1-21.7-28-50.3-28-80.6V301.6c0-30.3 10-58.9 28-80.6 19-22.9 44.7-35.5 72.3-35.5h326c12.1 0 21.9 9.8 21.9 21.9 0 12.1-9.8 21.9-21.9 21.9h-326c-31.2 0-56.5 32.4-56.5 72.3v542.9c0 39.9 25.4 72.3 56.5 72.3h695.8c31.2 0 56.5-32.4 56.5-72.3V594.9c0-12.1 9.8-21.9 21.9-21.9 12.1 0 21.9 9.8 21.9 21.9v249.6c0 30.3-10 58.9-28 80.6-19 22.9-44.7 35.5-72.3 35.5z" p-id="2660"></path></svg>